PathFileType	4	(X/Y/Z)	Patient4_TMGait_0pt4_02_left_04.trc.trc
DataRate	CameraRate	NumFrames	NumMarkers	Units	OrigDataRate	OrigDataStartFrame	OrigNumFrames
72.916666666667	72.916666666667	5	33	mm	72.916666666667	36	       141
Frame#	Time	Sacral			L.Shoulder			Chest			R.Shoulder			Neck			R.ASIS			L.ASIS			R.Thigh.Superior			R.Thigh.Lateral			R.Thigh.Inferior			R.Patella			L.Thigh.Superior			L.Thigh.Lateral			L.Thigh.Inferior			L.Patella			L.Shank.Superior			L.Shank.Lateral			L.Shank.Inferior			R.Shank.Superior			R.Shank.Lateral			R.Shank.Inferior			R.Heel			R.Midfoot.Superior			R.Midfoot.Lateral			R.Toe			L.Heel			L.Midfoot.Lateral			L.Midfoot.Superior			L.Toe			L.Elbow			L.Wrist			R.Elbow			R.Wrist			
		X1	Y1	Z1	X2	Y2	Z2	X3	Y3	Z3	X4	Y4	Z4	X5	Y5	Z5	X6	Y6	Z6	X7	Y7	Z7	X8	Y8	Z8	X9	Y9	Z9	X10	Y10	Z10	X11	Y11	Z11	X12	Y12	Z12	X13	Y13	Z13	X14	Y14	Z14	X15	Y15	Z15	X16	Y16	Z16	X17	Y17	Z17	X18	Y18	Z18	X19	Y19	Z19	X20	Y20	Z20	X21	Y21	Z21	X22	Y22	Z22	X23	Y23	Z23	X24	Y24	Z24	X25	Y25	Z25	X26	Y26	Z26	X27	Y27	Z27	X28	Y28	Z28	X29	Y29	Z29	X30	Y30	Z30	X31	Y31	Z31	X32	Y32	Z32	X33	Y33	Z33	

36	5.750000000000	871.202120536617	1003.633611373779	486.212414044951	1017.464101870670	1427.854551863002	273.119517012744	1144.591424345669	1365.801109737288	418.604931401376	1087.192887954393	1444.969447815574	600.366474590410	1022.694381798580	1493.349172755887	428.106820340976	1110.630349312847	939.543899090759	573.048953539847	1065.239603182487	962.891798809387	302.529525283731	1129.620974330966	729.278673644726	548.409071062968	1046.706127904140	626.095254496027	621.945112676672	1112.241114035361	563.323710075408	540.086929814112	1102.524559382682	462.373082999833	558.258946366868	1137.011515064443	762.096742754073	329.539888029583	1058.667242452235	637.282759841336	273.966666630207	1156.197435959347	569.012008354844	330.261383652600	1164.691724222815	499.223880045078	338.217051847704	1141.003284322128	425.286485677123	330.737060666266	1055.465537443226	307.128138255566	281.842234543393	1115.947390123082	196.995346988619	347.475356866551	1039.192270015100	388.628093525885	570.173250968730	937.114228348078	323.368831834980	641.894329870148	936.481378590095	216.215673512328	586.486853271472	751.471810486367	97.962199101602	574.336764187461	930.179387853467	103.942866768929	601.161163901219	832.740829412188	66.433437957336	644.080170681454	1032.798013896109	36.324559229142	624.441274570928	997.418553345488	38.693408075708	391.416787954735	1068.122382138611	36.241213871514	308.023215497842	1151.561744569458	97.686035611836	331.895689473119	1279.163096360076	46.997032441923	298.142159317809	944.769590429005	1079.662086727231	169.055611294037	1021.427076480125	827.787969580828	156.892144529400	1160.694165181261	1107.195504250565	719.219066528599	1382.196187347425	1066.172364889832	606.263116151327	
37	5.763714285714	870.198356247676	1004.285993970286	481.910893855084	1018.197949120211	1428.899407274839	269.637688432229	1144.091501481481	1366.595129101132	416.091065605521	1085.257561909715	1445.626494103015	597.398164882815	1022.062867817868	1494.155490190632	424.718182765217	1109.063962427930	940.517800821187	570.107793579482	1065.407989467827	963.452295406238	299.493265750608	1132.638235224033	731.367944390999	545.735508741830	1052.348548692698	626.804819900229	619.474620128520	1119.762266091545	564.893748715299	537.936708347843	1111.474917242915	462.554944283230	557.419254160699	1135.516531613063	761.525339637909	326.590587787648	1055.866621625506	637.314502378360	271.602533243772	1152.570493453723	568.340775337454	328.144149164946	1160.357875300699	498.717052685646	336.541569035224	1136.597955036563	424.938345383421	329.198579476946	1050.871608155544	306.835493562911	280.547643491207	1110.863086114109	196.851887543120	346.875076924122	1046.051932732641	389.584338909723	569.370528595482	941.607806859447	327.800384555307	640.731921923802	938.790808795791	220.121004986435	586.568250550439	750.433992766696	108.667763377165	574.558618761543	929.102144979386	106.180623947742	601.414893769570	830.015985984893	73.191842015403	644.168308367143	1027.596384002055	35.739458114595	624.331777947361	991.884930269581	38.692272556968	391.334609437287	1062.575126349320	36.153281535456	307.915929035611	1146.041159814553	97.602860130792	331.741767352286	1273.684456124416	46.798876051458	298.073363124847	949.285665890766	1080.620868915609	162.883752954475	1032.884820796367	830.911612722950	151.020053037119	1154.105386737904	1106.154765382263	715.514119255763	1374.771120223225	1047.015825020090	606.777931428380	
38	5.777428571429	869.038358263087	1004.724267017437	477.619535982346	1018.996741626919	1429.771152310521	266.233842900219	1143.518659953742	1367.187392627132	413.743468575078	1083.101956649469	1446.006019697324	594.586429285599	1021.337088074187	1494.780257862373	421.407043988265	1107.384131457236	941.291509586483	567.301880497791	1065.549370029475	963.798742528349	296.582330313265	1135.917004429891	733.554444889113	543.168854386856	1058.406287077098	627.544343619830	617.105925501569	1127.747288441175	566.632504532146	535.899360352798	1120.875485801950	463.001285940502	556.507802730796	1133.921481277170	760.850815310488	323.836272571874	1053.225293792313	637.292871759313	269.152936767698	1149.081341841216	567.658323310598	326.000546764534	1156.175218339733	498.133809533212	334.698204821638	1132.302165664304	424.484438297044	327.529999351324	1046.296444574677	306.463383113058	279.143975045740	1105.793944557613	196.632657259481	346.193473506368	1053.475545437198	390.697063784867	568.512768607491	946.771413005593	332.524048216834	639.565686142642	941.640192306978	224.408943875161	586.607344822705	750.092077846423	120.271035937913	574.767754807398	928.436861321569	109.030523656954	601.721426813115	827.744961542332	80.806330984748	644.243214829478	1022.464476206370	35.086399438751	624.205900565664	986.301557839485	38.675909479680	391.254234619227	1056.977377381184	36.035555135302	307.801457919046	1140.480241668781	97.474054299499	331.579634891849	1268.165030872466	46.552275015271	298.014920976797	953.887625039916	1081.554431035579	156.568939171951	1044.575258752655	834.238980580362	145.373022894917	1147.185220653678	1104.858908461324	711.876742688852	1365.874532953214	1027.568935114311	608.207773263103	
39	5.791142857143	867.720719001622	1004.931040288091	473.384713394221	1019.819612871164	1430.435982775424	262.939096415537	1142.867787950666	1367.554917755184	411.562751257537	1080.770643004748	1446.098860126946	591.944497079053	1020.537577550864	1495.212747988211	418.192112129733	1105.612212069566	941.853245172925	564.639477874668	1065.625631170210	963.943071125407	293.790730159660	1139.359004129037	735.837348328112	540.717784492855	1064.729546340430	628.348398817776	614.853530442237	1136.031600567552	568.564282421414	534.005566801403	1130.564340193619	463.743063707076	555.524393637048	1132.292011367957	760.125112806893	321.229775804945	1050.780508271930	637.210392675121	266.650407486881	1145.805657503233	566.972717067262	323.815208831863	1152.241902928613	497.486326193079	332.712706825004	1128.206556434738	423.929365624788	325.764968815093	1041.824289162892	306.031839102307	277.654347066901	1100.790659386219	196.340740316785	345.444988704026	1061.316502740169	391.991338332561	567.583876908797	952.501297998537	337.498444607582	638.393732310975	944.947489870358	229.049518009221	586.571257330352	750.452137865225	132.585858993990	574.931234890231	928.182595178699	112.534978511963	602.061984864553	825.980692233835	89.194361364484	644.283037494293	1017.509523880170	34.383065757246	624.071704144329	980.699833474888	38.651079443597	391.169336109943	1051.361569452413	35.902907944588	307.676599492050	1134.907472617777	97.316131144136	331.409989066290	1262.633602778316	46.278735940379	297.960028280755	958.646042450401	1082.405639634631	150.168014745559	1056.414325104426	837.678507752283	139.967472180135	1139.885461786745	1103.296220992477	708.378507888525	1355.392889822638	1008.046115366007	610.606535529714	
40	5.804857142857	866.258582951805	1004.911887049382	469.246739920971	1020.620515550887	1430.886801100310	259.782157320658	1142.132500036389	1367.703519720563	409.545608096616	1078.305576765466	1445.922267251564	589.480307641854	1019.686879908119	1495.463551851896	415.094083236220	1103.772729492976	942.222701221686	562.126636262990	1065.608043276723	963.913778004014	291.113498156942	1142.851155374412	738.221797502750	538.388358699728	1071.149194947833	629.261109210492	612.730299561534	1144.430503264585	570.719565095166	532.280709762093	1140.373590459041	464.811804876601	554.487550037018	1130.692983012875	759.388745498120	318.707017570657	1048.534313647598	637.059114674941	264.143586872394	1142.789395893002	566.286051126680	321.584633521773	1148.624554839464	496.788405148583	330.632511127181	1124.371181936147	423.284182194459	323.953733690682	1037.514995779673	305.564490059359	276.121461642220	1095.886507709607	195.983533309456	344.655663400765	1069.421972077919	393.496804006749	566.587680532571	958.675903127643	342.667875754926	637.218100444565	948.639789298386	233.988480065910	586.436829702044	751.517408715915	145.339370000808	575.007351775613	928.355575324895	116.661433520028	602.391018505862	824.792146238142	98.189456022745	644.260433089294	1012.888670406968	33.675722711157	623.938087138437	975.104049460850	38.623936627627	391.077216342451	1045.752315430048	35.769022689138	307.542033005975	1129.344035175292	97.144680503279	331.236432572488	1257.110468609766	45.996858509678	297.902771160936	963.631652499342	1083.140607575457	143.755902422073	1068.321531640182	841.150904252240	134.821006255217	1132.163917106356	1101.496034129166	705.094467700476	1343.239267109276	988.671906472370	613.999907394942	
